<?xml version="1.0" encoding="UTF-8" standalone="no"?>
<svg width="4769px" height="4936px" viewBox="0 0 4769 4936" version="1.1" xmlns="http://www.w3.org/2000/svg" xmlns:xlink="http://www.w3.org/1999/xlink" xmlns:sketch="http://www.bohemiancoding.com/sketch/ns">
    <!-- Generator: Sketch 3.3.3 (12072) - http://www.bohemiancoding.com/sketch -->
    <title>Imported Layers</title>
    <desc>Created with Sketch.</desc>
    <defs></defs>
    <g id="Page-1" stroke="none" stroke-width="1" fill="none" fill-rule="evenodd" sketch:type="MSPage">
        <g id="Imported-Layers" sketch:type="MSLayerGroup">
            <path d="M455.822,4418.841 C453.577,4341.944 450.337,4325.498 442.701,4316.697 C436.137,4311.221 427.336,4307.896 394.369,4307.896 L247.302,4307.896 C213.254,4307.896 204.623,4310.057 196.817,4316.697 C186.936,4327.659 182.616,4361.706 182.616,4550.38 C182.616,4738.22 186.936,4774.258 196.817,4784.224 C204.623,4791.86 213.254,4794.02 247.302,4794.02 L399.853,4794.02 C430.575,4794.02 441.621,4791.86 449.257,4784.224 C456.979,4776.58 462.463,4745.687 462.463,4670.125 L462.463,4648.033 L308.841,4648.033 L308.841,4519.818 L632.863,4519.818 L632.863,4623.951 C632.863,4800.831 616.417,4857.634 577.974,4896.163 C549.487,4924.726 512.123,4934.522 445.941,4934.522 L190.252,4934.522 C117.845,4934.522 88.279,4924.726 61.791,4898.323 C20.184,4856.63 0.507,4785.38 0.507,4550.38 C0.507,4314.537 20.184,4243.126 61.791,4202.599 C88.279,4176.196 117.845,4166.391 190.252,4166.391 L443.781,4166.391 C512.123,4166.391 551.647,4177.36 574.734,4200.439 C613.101,4237.811 624.147,4280.49 626.307,4418.841 L455.822,4418.841" id="Fill-1" fill="#000000" sketch:type="MSShapeGroup"></path>
            <path d="M1047.736,4803.986 L1047.736,4934.522 L720.72,4934.522 L720.72,4803.986 L802.022,4803.986 L802.022,4462.684 L720.72,4462.684 L720.72,4330.984 L965.44,4330.984 L965.44,4423.16 C1028.059,4358.39 1059.777,4329.818 1108.11,4329.818 L1161.92,4329.818 L1161.92,4493.407 L1094.904,4493.407 C1048.816,4493.407 1013.773,4497.727 965.44,4517.658 L965.44,4803.986 L1047.736,4803.986" id="Fill-2" fill="#000000" sketch:type="MSShapeGroup"></path>
            <path d="M1555.781,4465.839 C1548.23,4459.368 1537.26,4457.208 1512.022,4457.208 L1438.442,4457.208 C1415.364,4457.208 1403.323,4459.368 1396.844,4465.839 C1387.958,4474.81 1386.962,4489.096 1384.718,4525.133 L1228.935,4525.133 C1231.095,4423.16 1240.976,4389.274 1265.057,4365.031 C1289.224,4340.779 1317.702,4330.984 1372.677,4330.984 L1581.198,4330.984 C1640.194,4330.984 1673.247,4341.944 1695.169,4364.036 C1722.567,4390.278 1730.296,4421.995 1730.296,4521.808 L1730.296,4803.986 L1808.272,4803.986 L1808.272,4934.522 L1566.912,4934.522 L1566.912,4867.591 C1494.497,4926.886 1469.25,4935.687 1417.6,4935.687 L1345.109,4935.687 C1291.376,4935.687 1262.813,4929.045 1238.731,4904.964 C1217.974,4884.037 1203.689,4847.83 1203.689,4768.943 C1203.689,4694.207 1215.729,4646.043 1240.976,4620.626 C1269.455,4592.064 1312.302,4580.108 1411.044,4580.108 C1464.769,4580.108 1518.493,4586.749 1566.912,4597.71 L1566.912,4546.06 C1566.912,4486.766 1563.588,4474.81 1555.781,4465.839 L1555.781,4465.839 Z M1566.912,4785.38 L1566.912,4679.921 L1468.17,4679.921 C1404.48,4679.921 1387.958,4684.402 1378.076,4694.207 C1367.192,4705.167 1364.871,4720.448 1364.871,4749.182 C1364.871,4780.899 1367.192,4798.501 1375.833,4807.31 C1383.638,4814.947 1396.844,4817.107 1418.765,4817.107 L1452.728,4817.107 C1485.611,4817.107 1512.022,4812.787 1566.912,4785.38 L1566.912,4785.38 Z" id="Fill-3" fill="#000000" sketch:type="MSShapeGroup"></path>
            <path d="M2102.32,4411.035 C2180.212,4340.779 2204.293,4329.818 2260.263,4329.818 L2315.152,4329.818 C2367.882,4329.818 2399.608,4340.779 2422.772,4364.036 C2447.933,4387.947 2457.814,4420.005 2457.814,4508.688 L2457.814,4803.986 L2535.79,4803.986 L2535.79,4934.522 L2229.54,4934.522 L2229.54,4804.981 L2294.311,4804.981 L2294.311,4526.298 C2294.311,4501.052 2289.906,4486.766 2281.19,4476.97 C2271.224,4467.004 2260.263,4463.849 2230.62,4463.849 L2197.729,4463.849 C2169.251,4463.849 2142.925,4470.329 2102.32,4489.096 L2102.32,4804.981 L2167.006,4804.981 L2167.006,4934.522 L1857.592,4934.522 L1857.592,4803.986 L1938.723,4803.986 L1938.723,4462.684 L1857.592,4462.684 L1857.592,4330.984 L2102.32,4330.984 L2102.32,4411.035" id="Fill-4" fill="#000000" sketch:type="MSShapeGroup"></path>
            <path d="M2986.871,4854.47 C2908.894,4923.561 2883.648,4935.687 2828.758,4935.687 L2773.869,4935.687 C2721.224,4935.687 2689.421,4924.726 2666.42,4901.478 C2641.088,4876.401 2631.207,4844.513 2631.207,4756.817 L2631.207,4462.684 L2553.401,4462.684 L2553.401,4330.984 L2794.711,4330.984 L2794.711,4738.22 C2794.711,4764.453 2799.115,4778.739 2808.001,4787.54 C2817.882,4797.345 2828.758,4801.656 2858.41,4801.656 L2891.454,4801.656 C2919.94,4801.656 2946.267,4794.02 2986.871,4776.58 L2986.871,4461.52 L2902.338,4461.52 L2902.338,4330.984 L3150.298,4330.984 L3150.298,4803.986 L3231.514,4803.986 L3231.514,4934.522 L2986.871,4934.522 L2986.871,4854.47" id="Fill-5" fill="#000000" sketch:type="MSShapeGroup"></path>
            <path d="M3279.924,4934.522 L3279.924,4803.986 L3364.294,4803.986 L3364.294,4256.247 L3279.924,4256.247 L3279.924,4124.707 L3528.963,4124.707 L3528.963,4804.981 L3611.344,4804.981 L3611.344,4934.522 L3279.924,4934.522" id="Fill-6" fill="#000000" sketch:type="MSShapeGroup"></path>
            <path d="M4024.967,4465.839 C4017.332,4459.368 4006.448,4457.208 3981.208,4457.208 L3907.628,4457.208 C3884.465,4457.208 3872.424,4459.368 3865.945,4465.839 C3857.059,4474.81 3856.064,4489.096 3853.904,4525.133 L3697.951,4525.133 C3700.281,4423.16 3710.077,4389.274 3734.159,4365.031 C3758.24,4340.779 3786.805,4330.984 3841.863,4330.984 L4050.298,4330.984 C4109.509,4330.984 4142.391,4341.944 4164.474,4364.036 C4191.88,4390.278 4199.525,4421.995 4199.525,4521.808 L4199.525,4803.986 L4277.493,4803.986 L4277.493,4934.522 L4036.013,4934.522 L4036.013,4867.591 C3963.598,4926.886 3938.359,4935.687 3886.701,4935.687 L3814.21,4935.687 C3760.485,4935.687 3731.999,4929.045 3707.833,4904.964 C3687.076,4884.037 3672.875,4847.83 3672.875,4768.943 C3672.875,4694.207 3684.916,4646.043 3710.077,4620.626 C3738.64,4592.064 3781.413,4580.108 3880.23,4580.108 C3933.955,4580.108 3987.68,4586.749 4036.013,4597.71 L4036.013,4546.06 C4036.013,4486.766 4032.773,4474.81 4024.967,4465.839 L4024.967,4465.839 Z M4036.013,4785.38 L4036.013,4679.921 L3937.28,4679.921 C3873.504,4679.921 3857.059,4684.402 3847.179,4694.207 C3836.217,4705.167 3834.057,4720.448 3834.057,4749.182 C3834.057,4780.899 3836.217,4798.501 3845.018,4807.31 C3852.824,4814.947 3865.945,4817.107 3887.781,4817.107 L3921.914,4817.107 C3954.712,4817.107 3981.208,4812.787 4036.013,4785.38 L4036.013,4785.38 Z" id="Fill-7" fill="#000000" sketch:type="MSShapeGroup"></path>
            <path d="M4653.837,4803.986 L4653.837,4934.522 L4326.736,4934.522 L4326.736,4803.986 L4408.037,4803.986 L4408.037,4462.684 L4326.736,4462.684 L4326.736,4330.984 L4571.626,4330.984 L4571.626,4423.16 C4633.99,4358.39 4665.878,4329.818 4714.126,4329.818 L4768.021,4329.818 L4768.021,4493.407 L4701.006,4493.407 C4655.003,4493.407 4619.789,4497.727 4571.626,4517.658 L4571.626,4803.986 L4653.837,4803.986" id="Fill-8" fill="#000000" sketch:type="MSShapeGroup"></path>
            <path d="M2541.785,1420.705 L728.465,1420.704 L728.465,0.382 L3931.584,0.383 L3931.584,666.542 L2541.347,666.542 L2541.785,1420.705" id="Fill-9" fill="#EE3124" sketch:type="MSShapeGroup"></path>
            <path d="M3419.335,2833.947 L2924.46,3522.356 L4051.726,3522.07 L4051.725,1431.166 L3033.113,1431.166 L3033.114,2039.088 L3418.746,2039.088 L3419.335,2833.947" id="Fill-10" fill="#EE3124" sketch:type="MSShapeGroup"></path>
            <path d="M729.206,1733.655 L729.207,3522.658 L2598.09,3522.658 L2598.09,2612.82 L1911.885,2612.82 L1911.885,1733.368 L729.206,1733.368 L729.206,1733.655" id="Fill-11" fill="#EE3124" sketch:type="MSShapeGroup"></path>
        </g>
    </g>
</svg>